<svg xmlns="http://www.w3.org/2000/svg" width="512" height="512" viewBox="0 0 512 512">
  <defs>
    <linearGradient id="bg" x1="0" y1="0" x2="1" y2="1">
      <stop offset="0%" stop-color="#0f172a"/>
      <stop offset="100%" stop-color="#1e293b"/>
    </linearGradient>
    <linearGradient id="gold" x1="0" y1="0" x2="0" y2="1">
      <stop offset="0%" stop-color="#f5e6c8"/>
      <stop offset="100%" stop-color="#b8860b"/>
    </linearGradient>
  </defs>
  <rect width="512" height="512" rx="112" fill="url(#bg)"/>
  <rect x="2" y="2" width="508" height="508" rx="110" fill="none" stroke="#d4a853" stroke-opacity="0.15" stroke-width="2"/>
  <!-- Tower building -->
  <g transform="translate(256, 240)" fill="url(#gold)">
    <!-- Main tower -->
    <rect x="-42" y="-140" width="84" height="192" rx="4"/>
    <!-- Tower top -->
    <polygon points="-32,-140 32,-140 22,-172 -22,-172"/>
    <rect x="-5" y="-192" width="10" height="22" rx="3"/>
    <!-- Windows -->
    <rect x="-28" y="-124" width="16" height="12" rx="2" fill="#0f172a" opacity="0.5"/>
    <rect x="12" y="-124" width="16" height="12" rx="2" fill="#0f172a" opacity="0.5"/>
    <rect x="-28" y="-100" width="16" height="12" rx="2" fill="#0f172a" opacity="0.5"/>
    <rect x="12" y="-100" width="16" height="12" rx="2" fill="#0f172a" opacity="0.5"/>
    <rect x="-28" y="-76" width="16" height="12" rx="2" fill="#0f172a" opacity="0.5"/>
    <rect x="12" y="-76" width="16" height="12" rx="2" fill="#0f172a" opacity="0.5"/>
    <rect x="-28" y="-52" width="16" height="12" rx="2" fill="#0f172a" opacity="0.5"/>
    <rect x="12" y="-52" width="16" height="12" rx="2" fill="#0f172a" opacity="0.5"/>
    <rect x="-28" y="-28" width="16" height="12" rx="2" fill="#0f172a" opacity="0.5"/>
    <rect x="12" y="-28" width="16" height="12" rx="2" fill="#0f172a" opacity="0.5"/>
    <!-- Left wing -->
    <rect x="-96" y="-86" width="48" height="138" rx="4"/>
    <rect x="-86" y="-72" width="10" height="10" rx="1.5" fill="#0f172a" opacity="0.5"/>
    <rect x="-66" y="-72" width="10" height="10" rx="1.5" fill="#0f172a" opacity="0.5"/>
    <rect x="-86" y="-50" width="10" height="10" rx="1.5" fill="#0f172a" opacity="0.5"/>
    <rect x="-66" y="-50" width="10" height="10" rx="1.5" fill="#0f172a" opacity="0.5"/>
    <rect x="-86" y="-28" width="10" height="10" rx="1.5" fill="#0f172a" opacity="0.5"/>
    <rect x="-66" y="-28" width="10" height="10" rx="1.5" fill="#0f172a" opacity="0.5"/>
    <rect x="-86" y="-6" width="10" height="10" rx="1.5" fill="#0f172a" opacity="0.5"/>
    <rect x="-66" y="-6" width="10" height="10" rx="1.5" fill="#0f172a" opacity="0.5"/>
    <!-- Right wing -->
    <rect x="48" y="-86" width="48" height="138" rx="4"/>
    <rect x="58" y="-72" width="10" height="10" rx="1.5" fill="#0f172a" opacity="0.5"/>
    <rect x="78" y="-72" width="10" height="10" rx="1.5" fill="#0f172a" opacity="0.5"/>
    <rect x="58" y="-50" width="10" height="10" rx="1.5" fill="#0f172a" opacity="0.5"/>
    <rect x="78" y="-50" width="10" height="10" rx="1.5" fill="#0f172a" opacity="0.5"/>
    <rect x="58" y="-28" width="10" height="10" rx="1.5" fill="#0f172a" opacity="0.5"/>
    <rect x="78" y="-28" width="10" height="10" rx="1.5" fill="#0f172a" opacity="0.5"/>
    <rect x="58" y="-6" width="10" height="10" rx="1.5" fill="#0f172a" opacity="0.5"/>
    <rect x="78" y="-6" width="10" height="10" rx="1.5" fill="#0f172a" opacity="0.5"/>
    <!-- Ground -->
    <rect x="-112" y="52" width="224" height="3" rx="1.5" opacity="0.3"/>
  </g>
  <!-- Text -->
  <text x="256" y="430" text-anchor="middle" font-family="system-ui, -apple-system, sans-serif" font-size="42" font-weight="600" letter-spacing="8" fill="#d4a853">RIHAN</text>
  <text x="256" y="472" text-anchor="middle" font-family="system-ui, -apple-system, sans-serif" font-size="24" font-weight="400" letter-spacing="5" fill="#94a3b8">HEIGHTS B701</text>
</svg>
